<mxfile host="app.diagrams.net" modified="2023-03-28T07:57:21.716Z" agent="Mozilla/5.0 (Windows NT 10.0; Win64; x64) AppleWebKit/537.36 (KHTML, like Gecko) Chrome/98.0.4758.102 Safari/537.36" version="21.1.1" etag="WIKh9GjBJ9E9sBX53aDA" type="github">
  <diagram name="第 1 页" id="VWyGwBDQDLl4xHojaTC3">
    <mxGraphModel>
      <root>
        <mxCell id="0" />
        <mxCell id="1" parent="0" />
      </root>
    </mxGraphModel>
  </diagram>
</mxfile>
